<?xml version="1.0" encoding="utf-8"?>
<!-- Generator: Adobe Illustrator 19.2.1, SVG Export Plug-In . SVG Version: 6.00 Build 0)  -->
<svg version="1.1" id="Layer_1" xmlns="http://www.w3.org/2000/svg" xmlns:xlink="http://www.w3.org/1999/xlink" x="0px" y="0px"
	 viewBox="0 0 32 32" style="enable-background:new 0 0 32 32;" xml:space="preserve">
<title>unknown-guest-icon</title>
<path style="fill:#FFFFFF;" d="M19.8,21.3c-0.3-0.4-0.4-0.9-0.4-1.4c0.1-1.3,0.5-2.5,1-3.7c0.4-0.2,0.7-0.5,0.9-0.9
	c0.2-0.5,0.3-1.1,0.2-1.6c-0.2-0.1-0.3-0.4-0.2-0.6c0.3-1.4,0.5-2.8,0.4-4.2c-0.2-2.7-2.9-3.9-4.1-4.2c-1.7-0.4-3.5-0.2-5.1,0.5
	C11,5.9,10,7.5,10,9.2c0,1.4,0.2,2.8,0.5,4.1c-0.4,0.2-0.6,0.8-0.4,1.2c0.1,0.7,0.5,1.2,1.1,1.6c0,0,1.5,3.3,1.2,4.5
	S8.6,23.1,6.2,25c-3.2,1.7-3.8,7-3.8,7h27.4c0,0-0.4-4.7-2.3-6.7S20.3,22.7,19.8,21.3z"/>
</svg>
