<?xml version="1.0" encoding="UTF-8" standalone="no"?>
<!-- Created with Inkscape (http://www.inkscape.org/) -->

<svg
   xmlns:dc="http://purl.org/dc/elements/1.1/"
   xmlns:cc="http://creativecommons.org/ns#"
   xmlns:rdf="http://www.w3.org/1999/02/22-rdf-syntax-ns#"
   xmlns:svg="http://www.w3.org/2000/svg"
   xmlns="http://www.w3.org/2000/svg"
   xmlns:sodipodi="http://sodipodi.sourceforge.net/DTD/sodipodi-0.dtd"
   xmlns:inkscape="http://www.inkscape.org/namespaces/inkscape"
   id="svg3336"
   version="1.1"
   inkscape:version="0.91 r13725"
   xml:space="preserve"
   width="443.40625"
   height="121.989"
   viewBox="0 0 443.40625 121.989"
   sodipodi:docname="loopup-logo.svg"><metadata
     id="metadata3342"><rdf:RDF><cc:Work
         rdf:about=""><dc:format>image/svg+xml</dc:format><dc:type
           rdf:resource="http://purl.org/dc/dcmitype/StillImage" /><dc:title></dc:title></cc:Work></rdf:RDF></metadata><defs
     id="defs3340"><clipPath
       clipPathUnits="userSpaceOnUse"
       id="clipPath3358"><path
         d="m 0,97.591 354.725,0 L 354.725,0 0,0 0,97.591 Z"
         id="path3360"
         inkscape:connector-curvature="0" /></clipPath></defs><sodipodi:namedview
     pagecolor="#ffffff"
     bordercolor="#666666"
     borderopacity="1"
     objecttolerance="10"
     gridtolerance="10"
     guidetolerance="10"
     inkscape:pageopacity="0"
     inkscape:pageshadow="2"
     inkscape:window-width="1920"
     inkscape:window-height="1017"
     id="namedview3338"
     showgrid="false"
     inkscape:zoom="0.68334625"
     inkscape:cx="2.9267739"
     inkscape:cy="60.994499"
     inkscape:window-x="1912"
     inkscape:window-y="-8"
     inkscape:window-maximized="1"
     inkscape:current-layer="g3344" /><g
     id="g3344"
     inkscape:groupmode="layer"
     inkscape:label="loopup-logo"
     transform="matrix(1.25,0,0,-1.25,0,121.989)"><g
       id="g3346"
       transform="translate(343.0935,78.8089)"><path
         d="M 0,0 0.004,-0.791 1.703,-0.783 1.728,-6.55 2.532,-6.548 2.505,-0.781 4.189,-0.774 4.185,0.017 0,0 Z"
         style="fill:#292e37;fill-opacity:1;fill-rule:nonzero;stroke:none"
         id="path3348"
         inkscape:connector-curvature="0" /></g><g
       id="g3350"
       transform="translate(353.754,78.8562)"><path
         d="m 0,0 -2.239,-5.518 -2.292,5.502 -0.954,-0.008 0.027,-6.563 0.804,0.008 -0.021,4.987 2.079,-4.976 0.719,0 2.024,4.997 0.022,-4.986 0.802,0.001 L 0.944,0.006 0,0 Z"
         style="fill:#292e37;fill-opacity:1;fill-rule:nonzero;stroke:none"
         id="path3352"
         inkscape:connector-curvature="0" /></g><g
       id="g3354"><g
         id="g3356"
         clip-path="url(#clipPath3358)"><g
           id="g3362"
           transform="translate(39.646,57.9692)"><path
             d="m 0,0 c -2.446,-2.446 -3.794,-5.699 -3.794,-9.159 0,-3.46 1.348,-6.712 3.794,-9.159 2.446,-2.446 5.699,-3.794 9.159,-3.794 3.46,0 6.712,1.348 9.159,3.794 2.446,2.447 3.794,5.699 3.794,9.159 0,3.46 -1.348,6.713 -3.794,9.159 C 13.268,5.051 5.05,5.05 0,0 m 9.159,-27.085 c -4.788,0 -9.29,1.865 -12.676,5.251 -3.385,3.385 -5.25,7.887 -5.25,12.675 0,4.788 1.865,9.29 5.25,12.676 6.99,6.988 18.362,6.988 25.351,0 3.386,-3.386 5.251,-7.888 5.251,-12.676 0,-4.788 -1.865,-9.29 -5.251,-12.675 -3.385,-3.386 -7.887,-5.251 -12.675,-5.251"
             style="fill:#76b145;fill-opacity:1;fill-rule:nonzero;stroke:none"
             id="path3364"
             inkscape:connector-curvature="0" /></g><g
           id="g3366"
           transform="translate(48.8042,15.4604)"><path
             d="m 0,0 c -8.544,0 -17.088,3.252 -23.593,9.757 -6.302,6.301 -9.772,14.68 -9.772,23.592 0,8.912 3.471,17.291 9.773,23.593 8.623,8.624 21.26,11.854 32.978,8.43 1.318,-0.385 2.074,-1.766 1.689,-3.084 -0.385,-1.318 -1.765,-2.075 -3.084,-1.69 -9.973,2.915 -20.728,0.167 -28.067,-7.173 -5.363,-5.362 -8.316,-12.492 -8.316,-20.076 0,-7.584 2.953,-14.713 8.316,-20.076 11.07,-11.07 29.083,-11.07 40.152,0 7.232,7.232 10.018,17.853 7.272,27.72 -0.369,1.322 0.405,2.693 1.728,3.062 1.323,0.368 2.694,-0.406 3.063,-1.729 C 35.366,30.735 32.091,18.255 23.593,9.757 17.088,3.252 8.544,0 0,0"
             style="fill:#76b145;fill-opacity:1;fill-rule:nonzero;stroke:none"
             id="path3368"
             inkscape:connector-curvature="0" /></g><g
           id="g3370"
           transform="translate(48.8904,0)"><path
             d="m 0,0 c -2.001,0 -4.014,0.122 -6.034,0.368 -1.363,0.167 -2.333,1.407 -2.166,2.77 0.166,1.363 1.405,2.334 2.769,2.167 13.495,-1.65 26.739,2.912 36.338,12.511 8.279,8.279 12.838,19.286 12.838,30.994 0,11.707 -4.559,22.715 -12.838,30.993 -17.089,17.09 -44.896,17.09 -61.986,0 -9.348,-9.347 -13.945,-22.262 -12.612,-35.432 0.138,-1.367 -0.857,-2.586 -2.223,-2.724 -1.37,-0.142 -2.587,0.857 -2.725,2.223 -1.484,14.663 3.635,29.041 14.043,39.45 19.029,19.028 49.991,19.028 69.02,0 C 43.642,74.102 48.718,61.846 48.718,48.81 48.718,35.774 43.642,23.518 34.424,14.3 25.172,5.049 12.879,0 0,0"
             style="fill:#76b145;fill-opacity:1;fill-rule:nonzero;stroke:none"
             id="path3372"
             inkscape:connector-curvature="0" /></g><path
           d="m 116.473,82.27 9.557,0 0,-53.173 -9.557,0 0,53.173 z"
           style="fill:#292e37;fill-opacity:1;fill-rule:nonzero;stroke:none"
           id="path3374"
           inkscape:connector-curvature="0" /><g
           id="g3376"
           transform="translate(151.7558,61.5753)"><path
             d="m 0,0 c -6.754,0 -11.712,-6.108 -11.712,-12.575 0,-6.682 4.814,-12.431 11.712,-12.431 6.755,0 11.569,5.821 11.569,12.36 C 11.569,-6.251 6.755,0 0,0 m 0,-33.772 c -11.641,0 -21.269,9.556 -21.269,21.197 0,11.713 9.485,21.342 21.269,21.342 11.785,0 21.126,-9.486 21.126,-21.198 0,-12.072 -9.054,-21.341 -21.126,-21.341"
             style="fill:#292e37;fill-opacity:1;fill-rule:nonzero;stroke:none"
             id="path3378"
             inkscape:connector-curvature="0" /></g><g
           id="g3380"
           transform="translate(196.1055,61.5753)"><path
             d="m 0,0 c -6.754,0 -11.712,-6.108 -11.712,-12.575 0,-6.682 4.814,-12.431 11.712,-12.431 6.755,0 11.569,5.821 11.569,12.36 C 11.569,-6.251 6.755,0 0,0 m 0,-33.772 c -11.641,0 -21.269,9.556 -21.269,21.197 0,11.713 9.484,21.342 21.269,21.342 11.785,0 21.126,-9.486 21.126,-21.198 0,-12.072 -9.054,-21.341 -21.126,-21.341"
             style="fill:#292e37;fill-opacity:1;fill-rule:nonzero;stroke:none"
             id="path3382"
             inkscape:connector-curvature="0" /></g><g
           id="g3384"
           transform="translate(241.205,61.5753)"><path
             d="m 0,0 c -6.898,0 -11.784,-5.82 -11.784,-12.503 0,-4.958 2.371,-9.27 6.97,-11.353 1.437,-0.719 3.018,-1.15 4.67,-1.15 6.755,0 11.641,6.036 11.641,12.503 C 11.497,-6.108 6.755,0 0,0 m 1.078,-33.772 c -5.318,0 -8.551,1.509 -12.288,5.101 l 0,-17.101 -9.556,0 0,53.174 8.766,0 0,-4.671 0.144,0 c 3.305,4.167 7.688,6.036 12.934,6.036 11.712,0 19.976,-9.773 19.976,-21.126 0,-11.282 -8.264,-21.413 -19.976,-21.413"
             style="fill:#292e37;fill-opacity:1;fill-rule:nonzero;stroke:none"
             id="path3386"
             inkscape:connector-curvature="0" /></g><g
           id="g3388"
           transform="translate(296.2916,34.4859)"><path
             d="m 0,0 -0.144,0 c -2.299,-4.455 -7.473,-6.324 -12.215,-6.324 -4.743,0 -9.485,1.51 -12.647,5.102 -3.449,3.593 -4.168,8.91 -4.168,13.725 l 0,21.629 5.965,0 0,-21.629 c 0,-7.689 2.586,-13.437 11.137,-13.437 7.904,0 11.641,5.892 11.641,14.083 l 0,20.983 5.964,0 0,-39.521 L 0,-5.389 0,0 Z"
             style="fill:#292e37;fill-opacity:1;fill-rule:nonzero;stroke:none"
             id="path3390"
             inkscape:connector-curvature="0" /></g><g
           id="g3392"
           transform="translate(328.3093,64.1625)"><path
             d="m 0,0 c -8.407,0 -14.73,-7.042 -14.73,-15.306 0,-8.335 6.323,-15.305 14.802,-15.305 8.695,0 15.018,6.611 15.018,15.234 C 15.09,-6.827 8.695,0 0,0 m 0.431,-36 c -5.82,0 -11.569,2.443 -14.802,7.401 l -0.144,0 0,-20.048 -6.036,0 0,53.102 5.749,0 0,-6.611 0.143,0 c 3.521,4.958 8.911,7.617 14.875,7.617 11.856,0 20.91,-9.054 20.91,-20.91 C 21.126,-27.09 12.072,-36 0.431,-36"
             style="fill:#292e37;fill-opacity:1;fill-rule:nonzero;stroke:none"
             id="path3394"
             inkscape:connector-curvature="0" /></g></g></g></g></svg>